
<svg width="800" height="800" viewBox="0 0 800 800" fill="none" xmlns="http://www.w3.org/2000/svg">
  <g opacity="0.05">
    <path d="M400 0C400 220.91 220.91 400 0 400V0H400Z" fill="#57a44c"/>
    <path d="M800 400C579.09 400 400 579.09 400 800H800V400Z" fill="#57a44c"/>
    <path d="M400 800C400 579.09 579.09 400 800 400V800H400Z" fill="#57a44c"/>
    <path d="M0 400C220.91 400 400 220.91 400 0H0V400Z" fill="#57a44c"/>
    <path d="M700 100C700 155.23 655.23 200 600 200C544.77 200 500 155.23 500 100C500 44.77 544.77 0 600 0C655.23 0 700 44.77 700 100Z" fill="#57a44c"/>
    <path d="M300 700C300 755.23 255.23 800 200 800C144.77 800 100 755.23 100 700C100 644.77 144.77 600 200 600C255.23 600 300 644.77 300 700Z" fill="#57a44c"/>
    <path d="M700 700C700 755.23 655.23 800 600 800C544.77 800 500 755.23 500 700C500 644.77 544.77 600 600 600C655.23 600 700 644.77 700 700Z" fill="#57a44c"/>
    <path d="M300 100C300 155.23 255.23 200 200 200C144.77 200 100 155.23 100 100C100 44.77 144.77 0 200 0C255.23 0 300 44.77 300 100Z" fill="#57a44c"/>
    <path d="M100 300C155.23 300 200 344.77 200 400C200 455.23 155.23 500 100 500C44.77 500 0 455.23 0 400C0 344.77 44.77 300 100 300Z" fill="#57a44c"/>
    <path d="M700 300C755.23 300 800 344.77 800 400C800 455.23 755.23 500 700 500C644.77 500 600 455.23 600 400C600 344.77 644.77 300 700 300Z" fill="#57a44c"/>
  </g>
  <g opacity="0.05">
    <path d="M450 50C450 77.61 427.61 100 400 100C372.39 100 350 77.61 350 50C350 22.39 372.39 0 400 0C427.61 0 450 22.39 450 50Z" fill="#57a44c"/>
    <path d="M450 750C450 777.61 427.61 800 400 800C372.39 800 350 777.61 350 750C350 722.39 372.39 700 400 700C427.61 700 450 722.39 450 750Z" fill="#57a44c"/>
    <path d="M750 450C777.61 450 800 472.39 800 500C800 527.61 777.61 550 750 550C722.39 550 700 527.61 700 500C700 472.39 722.39 450 750 450Z" fill="#57a44c"/>
    <path d="M50 450C77.61 450 100 472.39 100 500C100 527.61 77.61 550 50 550C22.39 550 0 527.61 0 500C0 472.39 22.39 450 50 450Z" fill="#57a44c"/>
    <path d="M650 150C677.61 150 700 172.39 700 200C700 227.61 677.61 250 650 250C622.39 250 600 227.61 600 200C600 172.39 622.39 150 650 150Z" fill="#57a44c"/>
    <path d="M650 550C677.61 550 700 572.39 700 600C700 627.61 677.61 650 650 650C622.39 650 600 627.61 600 600C600 572.39 622.39 550 650 550Z" fill="#57a44c"/>
    <path d="M150 150C177.61 150 200 172.39 200 200C200 227.61 177.61 250 150 250C122.39 250 100 227.61 100 200C100 172.39 122.39 150 150 150Z" fill="#57a44c"/>
    <path d="M150 550C177.61 550 200 572.39 200 600C200 627.61 177.61 650 150 650C122.39 650 100 627.61 100 600C100 572.39 122.39 550 150 550Z" fill="#57a44c"/>
  </g>
  <path d="M400 0V800" stroke="#57a44c" stroke-opacity="0.1" stroke-width="2" stroke-dasharray="20 20"/>
  <path d="M0 400H800" stroke="#57a44c" stroke-opacity="0.1" stroke-width="2" stroke-dasharray="20 20"/>
</svg>
